<svg width="40" height="50" viewBox="0 0 40 50" fill="none" xmlns="http://www.w3.org/2000/svg">
<path fill-rule="evenodd" clip-rule="evenodd" d="M29.1049 0.0413616C28.3451 0.226538 26.9355 0.740211 26.129 1.12592C22.1321 3.03758 20.3192 5.69503 20.1544 9.88391C20.1115 10.9722 20.1258 11.2035 20.2358 11.2017C20.5512 11.1968 22.1215 10.8038 22.9383 10.5254C25.3366 9.70785 27.5393 8.08927 28.5049 6.43449C29.4161 4.87321 29.8245 2.58986 29.5706 0.476319C29.5106 -0.0231475 29.4815 -0.0504103 29.1049 0.0413616ZM27.8089 11.8857C26.7168 12.0058 25.8966 12.2467 24.0687 12.9842C20.5219 14.4152 19.92 14.4375 17.0135 13.2447C15.775 12.7364 14.7837 12.3883 14.1775 12.249C12.1383 11.7799 9.50694 12.071 7.6018 12.9763C4.61441 14.396 1.88266 17.632 0.751352 21.0914C-0.718248 25.5852 -0.000966938 32.1605 2.63095 38.3227C4.91027 43.6591 8.48007 47.8757 11.5376 48.8431C12.9895 49.3025 13.9147 49.1798 16.6734 48.1618C19.0521 47.2841 19.7572 47.0986 20.9499 47.0368C22.1713 46.9735 22.8723 47.1411 25.313 48.08C29.349 49.6323 30.1756 49.5119 33.3307 46.9125C35.4047 45.2036 36.4379 43.7899 38.2138 40.2312C38.9336 38.7886 40.0008 36.3394 40 36.1315C39.9997 36.0695 39.6788 35.8541 39.2868 35.6528C36.5462 34.2459 34.6468 31.7609 33.6969 28.3391C33.3683 27.1556 33.2796 25.0364 33.5109 23.895C34.0172 21.3965 35.6691 18.9316 38.0334 17.1465C38.3233 16.9276 38.5604 16.7053 38.5604 16.6523C38.5604 16.5994 38.0528 16.0511 37.4325 15.4337C36.3092 14.316 35.2769 13.5494 34.0966 12.9564C32.4177 12.1129 29.7992 11.667 27.8089 11.8857Z" fill="#020636"/>
</svg>
