<svg width="40" height="57" viewBox="0 0 40 57" fill="none" xmlns="http://www.w3.org/2000/svg">
<path fill-rule="evenodd" clip-rule="evenodd" d="M29.1049 0.332915C28.3451 0.544545 26.9355 1.1316 26.129 1.57241C22.1321 3.75717 20.3192 6.79425 20.1544 11.5815C20.1115 12.8253 20.1258 13.0896 20.2358 13.0876C20.5512 13.082 22.1215 12.6329 22.9383 12.3147C25.3366 11.3803 27.5393 9.53052 28.5049 7.63935C29.4161 5.85503 29.8245 3.24548 29.5706 0.830009C29.5106 0.25919 29.4815 0.228033 29.1049 0.332915ZM27.8089 13.8693C26.7168 14.0066 25.8966 14.2818 24.0687 15.1247C20.5219 16.7602 19.92 16.7856 17.0135 15.4225C15.775 14.8416 14.7837 14.4437 14.1775 14.2844C12.1383 13.7484 9.50694 14.081 7.6018 15.1157C4.61441 16.7382 1.88266 20.4365 0.751352 24.3901C-0.718248 29.5258 -0.000966938 37.0405 2.63095 44.083C4.91027 50.1817 8.48007 55.0007 11.5376 56.1064C12.9895 56.6313 13.9147 56.4911 16.6734 55.3276C19.0521 54.3246 19.7572 54.1126 20.9499 54.042C22.1713 53.9697 22.8723 54.1612 25.313 55.2342C29.349 57.0083 30.1756 56.8707 33.3307 53.8999C35.4047 51.9469 36.4379 50.3313 38.2138 46.2641C38.9336 44.6155 40.0008 41.8164 40 41.5787C39.9997 41.5079 39.6788 41.2618 39.2868 41.0317C36.5462 39.4238 34.6468 36.5838 33.6969 32.6732C33.3683 31.3206 33.2796 28.8986 33.5109 27.5942C34.0172 24.7388 35.6691 21.9218 38.0334 19.8816C38.3233 19.6315 38.5604 19.3774 38.5604 19.3168C38.5604 19.2564 38.0528 18.6297 37.4325 17.9242C36.3092 16.6468 35.2769 15.7707 34.0966 15.093C32.4177 14.129 29.7992 13.6194 27.8089 13.8693Z" fill="#F8F0E3"/>
</svg>
